HIERARCHY
ROOT Hips
{
  OFFSET 54.1597 95.8457 5.38487
  CHANNELS 6 Xposition Yposition Zposition Zrotation Xrotation Yrotation
  JOINT spine
  {
    OFFSET 0 8.13249 0.467659
    CHANNELS 3 Zrotation Xrotation Yrotation
    JOINT spine1
    {
      OFFSET 0 10.3498 0
      CHANNELS 3 Zrotation Xrotation Yrotation
      JOINT spine2
      {
        OFFSET 0 9.91699 0
        CHANNELS 3 Zrotation Xrotation Yrotation
        JOINT Neck
        {
          OFFSET 0 25.461 1.2139
          CHANNELS 3 Zrotation Xrotation Yrotation
          JOINT Head
          {
            OFFSET 0 7.69245 0
            CHANNELS 3 Zrotation Xrotation Yrotation
            End Site
            {
              OFFSET 0 18.62 -6.14063
            }
          }
        }
        JOINT RightShoulder
        {
          OFFSET -4.17575 10.7096 -0.581445
          CHANNELS 3 Zrotation Xrotation Yrotation
          JOINT RightArm
          {
            OFFSET 0 14.0466 0
            CHANNELS 3 Zrotation Xrotation Yrotation
            JOINT RightArmRoll
            {
              OFFSET 0 7.09098 0
              CHANNELS 3 Zrotation Xrotation Yrotation
              JOINT RightForeArm
              {
                OFFSET 0 20.6535 0
                CHANNELS 3 Zrotation Xrotation Yrotation
                JOINT RightForeArmRoll
                {
                  OFFSET 0 7.95718 0
                  CHANNELS 3 Zrotation Xrotation Yrotation
                  JOINT RightHand
                  {
                    OFFSET 0 15.9683 0
                    CHANNELS 3 Zrotation Xrotation Yrotation
                    End Site
                    {
                      OFFSET 0 0 0
                    }
                  }
                }
              }
            }
          }
        }
        JOINT LeftShoulder
        {
          OFFSET 4.17575 10.7096 -0.581445
          CHANNELS 3 Zrotation Xrotation Yrotation
          JOINT LeftArm
          {
            OFFSET 0 14.0466 0
            CHANNELS 3 Zrotation Xrotation Yrotation
            JOINT LeftArmRoll
            {
              OFFSET 0 7.09098 0
              CHANNELS 3 Zrotation Xrotation Yrotation
              JOINT LeftForeArm
              {
                OFFSET 0 20.6535 0
                CHANNELS 3 Zrotation Xrotation Yrotation
                JOINT LeftForeArmRoll
                {
                  OFFSET 0 7.95718 0
                  CHANNELS 3 Zrotation Xrotation Yrotation
                  JOINT LeftHand
                  {
                    OFFSET 0 15.9683 0
                    CHANNELS 3 Zrotation Xrotation Yrotation
                    End Site
                    {
                      OFFSET 0 0 0
                    }
                  }
                }
              }
            }
          }
        }
      }
    }
  }
  JOINT RightUpLeg
  {
    OFFSET -7.20834 -1.32182 -1.10884
    CHANNELS 3 Zrotation Xrotation Yrotation
    JOINT RightUpLegRoll
    {
      OFFSET 0 18.7238 0
      CHANNELS 3 Zrotation Xrotation Yrotation
      JOINT RightLeg
      {
        OFFSET 0 -23.1866 0
        CHANNELS 3 Zrotation Xrotation Yrotation
        JOINT RightLegRoll
        {
          OFFSET 0 23.2624 0
          CHANNELS 3 Zrotation Xrotation Yrotation
          JOINT RightFoot
          {
            OFFSET 0 19.3621 0
            CHANNELS 3 Zrotation Xrotation Yrotation
            JOINT RightToeBase
            {
              OFFSET 0 16.1857 0
              CHANNELS 3 Zrotation Xrotation Yrotation
              End Site
              {
                OFFSET 0.00686052 7.83863 -0.903522
              }
            }
          }
        }
      }
    }
  }
  JOINT LeftUpLeg
  {
    OFFSET 7.20834 -1.32182 -1.10884
    CHANNELS 3 Zrotation Xrotation Yrotation
    JOINT LeftUpLegRoll
    {
      OFFSET 0 18.7239 0
      CHANNELS 3 Zrotation Xrotation Yrotation
      JOINT LeftLeg
      {
        OFFSET 0 23.1865 0
        CHANNELS 3 Zrotation Xrotation Yrotation
        JOINT LeftLegRoll
        {
          OFFSET 0 23.4775 0
          CHANNELS 3 Zrotation Xrotation Yrotation
          JOINT LeftFoot
          {
            OFFSET 0 19.147 0
            CHANNELS 3 Zrotation Xrotation Yrotation
            JOINT LeftToeBase
            {
              OFFSET 0 16.1857 0
              CHANNELS 3 Zrotation Xrotation Yrotation
              End Site
              {
                OFFSET -0.0307459 7.83863 -0.903522
              }
            }
          }
        }
      }
    }
  }
}
MOTION
Frames: 12
Frame Time: 0.00208333
52.3259 96.0564 2.5924 -1.34181 -5.08815 -2.35767 0.497716 -0.650456 0.100523 0.982312 2.70238 0.139173 0.982002 4.3473 0.122953 -4.58258 9.57376 -4.13028 4.79789 2.42961 -4.89275 57.6207 -9.74022 -6.04877 114.527 20.9005 15.5791 1.14862e-006 3.98714e-006 -2.9827e-006 8.0231 0.0657432 -0.652134 9.01971e-006 3.1038e-007 -3.00879 8.02915 -4.95144 0.697679 -62.4951 -6.23492 4.04418 -109.215 20.6419 -6.87213 -1.26377e-005 6.45826e-007 1.17853e-005 -8.85716 0.0749758 1.19374 -1.88325e-005 -5.83075e-007 3.06128 -8.02905 -4.95148 -0.697677 173.535 3.4475 3.16611 180 7.0157e-015 179.026 179.059 13.1774 179.52 2.55378e-006 -1.84189e-007 0.126466 -17.852 69.0662 20.3973 8.12621 25.2366 -3.47896 -175.131 0.142246 -1.08604 4.5067e-006 -1.99009e-005 -0.990542 -1.76605 -13.3396 0.363709 -1.6134e-006 -4.95199e-006 -0.154672 19.0822 71.2011 -22.4433 -8.12788 25.239 3.48426 
52.3352 96.0569 2.59289 -1.33741 -5.08273 -2.36743 0.496669 -0.65374 0.0990701 0.981237 2.69579 0.136623 0.980937 4.34072 0.120409 -4.58689 9.63862 -4.1194 4.79398 2.37231 -4.88286 57.63 -9.71684 -6.03379 114.511 20.8975 15.5741 1.14862e-006 3.98714e-006 -2.9827e-006 8.0313 0.0657419 -0.652171 9.01971e-006 3.1038e-007 -3.00879 8.02915 -4.95144 0.697679 -62.5053 -6.24827 4.05236 -109.207 20.6336 -6.86491 -1.26377e-005 6.45826e-007 1.17853e-005 -8.86832 0.0749735 1.19451 -1.88325e-005 -5.83075e-007 3.06128 -8.02905 -4.95148 -0.697677 173.52 3.45715 3.17433 180 7.0157e-015 179.026 179.056 13.1848 179.521 2.55378e-006 -1.84189e-007 0.126548 -17.8518 69.0682 20.4 8.12621 25.2366 -3.47896 -175.143 0.145037 -1.0796 4.5067e-006 -1.99009e-005 -0.990759 -1.76697 -13.3423 0.363527 -1.6134e-006 -4.95199e-006 -0.155421 19.0903 71.207 -22.4471 -8.12788 25.239 3.48426 
52.3479 96.0549 2.59522 -1.33287 -5.07722 -2.37722 0.495578 -0.657177 0.0975502 0.980112 2.6889 0.133952 0.979823 4.33383 0.117744 -4.59142 9.70643 -4.10828 4.79012 2.31248 -4.87277 57.6399 -9.69225 -6.01805 114.495 20.8944 15.5692 1.14862e-006 3.98714e-006 -2.9827e-006 8.03964 0.0657405 -0.652222 9.01971e-006 3.1038e-007 -3.00879 8.02915 -4.95144 0.697679 -62.5159 -6.26248 4.06106 -109.199 20.6253 -6.85793 -1.26377e-005 6.45826e-007 1.17853e-005 -8.87955 0.0749712 1.19524 -1.88325e-005 -5.83075e-007 3.06128 -8.02905 -4.95148 -0.697677 173.506 3.4674 3.1826 180 7.0157e-015 179.026 179.054 13.1931 179.521 2.55378e-006 -1.84189e-007 0.126669 -17.852 69.0705 20.403 8.12621 25.2366 -3.47896 -175.155 0.147867 -1.07307 4.5067e-006 -1.99009e-005 -0.990951 -1.7679 -13.3448 0.36336 -1.6134e-006 -4.95199e-006 -0.15618 19.0978 71.2127 -22.4506 -8.12788 25.239 3.48426 
52.3449 96.0557 2.60094 -1.32822 -5.07163 -2.38704 0.494458 -0.66072 0.0959832 0.978952 2.6818 0.131198 0.978673 4.32673 0.114995 -4.59611 9.77631 -4.09699 4.78632 2.25087 -4.86253 57.6502 -9.66681 -6.00176 114.477 20.8912 15.5645 1.14862e-006 3.98714e-006 -2.9827e-006 8.04807 0.0657392 -0.652282 9.01971e-006 3.1038e-007 -3.00879 8.02915 -4.95144 0.697679 -62.527 -6.27729 4.07012 -109.191 20.6168 -6.85113 -1.26377e-005 6.45826e-007 1.17853e-005 -8.89082 0.0749689 1.19593 -1.88325e-005 -5.83075e-007 3.06128 -8.02905 -4.95148 -0.697677 173.492 3.47805 3.19092 180 7.0157e-015 179.026 179.051 13.2018 179.522 2.55378e-006 -1.84189e-007 0.126817 -17.8526 69.073 20.4063 8.12621 25.2366 -3.47896 -175.167 0.150725 -1.06647 4.5067e-006 -1.99009e-005 -0.991125 -1.76885 -13.3471 0.363204 -1.6134e-006 -4.95199e-006 -0.156945 19.1049 71.2183 -22.4539 -8.12788 25.239 3.48426 
52.3468 96.0523 2.60937 -1.32352 -5.066 -2.39687 0.493319 -0.664325 0.0943895 0.977771 2.67457 0.128395 0.977503 4.31951 0.112198 -4.6009 9.84737 -4.08561 4.78255 2.18825 -4.85222 57.6606 -9.64088 -5.98518 114.46 20.8879 15.5599 1.14862e-006 3.98714e-006 -2.9827e-006 8.05657 0.0657378 -0.652348 9.01971e-006 3.1038e-007 -3.00879 8.02915 -4.95144 0.697679 -62.5382 -6.29243 4.07939 -109.183 20.6083 -6.84443 -1.26377e-005 6.45826e-007 1.17853e-005 -8.90212 0.0749666 1.19659 -1.88325e-005 -5.83075e-007 3.06128 -8.02905 -4.95148 -0.697677 173.477 3.48894 3.19925 180 7.0157e-015 179.026 179.049 13.2109 179.523 2.55378e-006 -1.84189e-007 0.126982 -17.8533 69.0758 20.4097 8.12621 25.2366 -3.47896 -175.179 0.153599 -1.05983 4.5067e-006 -1.99009e-005 -0.991289 -1.7698 -13.3493 0.363053 -1.6134e-006 -4.95199e-006 -0.157715 19.1117 71.2238 -22.4571 -8.12788 25.239 3.48426 
52.3648 96.0529 2.61353 -1.3188 -5.06037 -2.40671 0.492176 -0.667945 0.092789 0.976584 2.66732 0.12558 0.976328 4.31225 0.10939 -4.60574 9.91873 -4.0742 4.77881 2.12537 -4.84189 57.6711 -9.61484 -5.96852 114.442 20.8846 15.5553 1.14862e-006 3.98714e-006 -2.9827e-006 8.06507 0.0657364 -0.652415 9.01971e-006 3.1038e-007 -3.00879 8.02915 -4.95144 0.697679 -62.5495 -6.30766 4.08871 -109.175 20.5998 -6.83776 -1.26377e-005 6.45826e-007 1.17853e-005 -8.91343 0.0749643 1.19726 -1.88325e-005 -5.83075e-007 3.06128 -8.02905 -4.95148 -0.697677 173.463 3.49989 3.2076 180 7.0157e-015 179.026 179.047 13.22 179.524 2.55378e-006 -1.84189e-007 0.12715 -17.8541 69.0785 20.4132 8.12621 25.2366 -3.47896 -175.191 0.156477 -1.05318 4.5067e-006 -1.99009e-005 -0.991451 -1.77075 -13.3515 0.362904 -1.6134e-006 -4.95199e-006 -0.158486 19.1185 71.2293 -22.4603 -8.12788 25.239 3.48426 
52.3662 96.0552 2.61706 -1.31411 -5.05475 -2.41654 0.491042 -0.671534 0.0912019 0.975407 2.66012 0.12279 0.975162 4.30506 0.106605 -4.61057 9.98951 -4.06285 4.77509 2.06299 -4.83161 57.6815 -9.58903 -5.95201 114.425 20.8813 15.5507 1.14862e-006 3.98714e-006 -2.9827e-006 8.07355 0.065735 -0.652479 9.01971e-006 3.1038e-007 -3.00879 8.02915 -4.95144 0.697679 -62.5606 -6.32271 4.09792 -109.166 20.5913 -6.83103 -1.26377e-005 6.45826e-007 1.17853e-005 -8.92472 0.074962 1.19793 -1.88325e-005 -5.83075e-007 3.06128 -8.02905 -4.95148 -0.697677 173.448 3.51072 3.21593 180 7.0157e-015 179.026 179.044 13.229 179.524 2.55378e-006 -1.84189e-007 0.127311 -17.8548 69.0812 20.4166 8.12621 25.2366 -3.47896 -175.203 0.159347 -1.04655 4.5067e-006 -1.99009e-005 -0.991618 -1.7717 -13.3537 0.362752 -1.6134e-006 -4.95199e-006 -0.159255 19.1255 71.2348 -22.4635 -8.12788 25.239 3.48426 
52.3756 96.0483 2.62264 -1.30948 -5.04918 -2.42635 0.489929 -0.675047 0.0896484 0.974253 2.65308 0.120059 0.974019 4.29802 0.103881 -4.61534 10.0588 -4.05161 4.77136 2.00188 -4.82144 57.6915 -9.56382 -5.9359 114.407 20.8781 15.5459 1.14862e-006 3.98714e-006 -2.9827e-006 8.08195 0.0657336 -0.652537 9.01971e-006 3.1038e-007 -3.00879 8.02915 -4.95144 0.697679 -62.5715 -6.33735 4.10688 -109.158 20.5828 -6.82419 -1.26377e-005 6.45826e-007 1.17853e-005 -8.93598 0.0749596 1.19863 -1.88325e-005 -5.83075e-007 3.06128 -8.02905 -4.95148 -0.697677 173.434 3.52126 3.22423 180 7.0157e-015 179.026 179.042 13.2376 179.525 2.55378e-006 -1.84189e-007 0.127452 -17.8553 69.0837 20.4198 8.12621 25.2366 -3.47896 -175.215 0.162197 -1.03996 4.5067e-006 -1.99009e-005 -0.991797 -1.77264 -13.356 0.362592 -1.6134e-006 -4.95199e-006 -0.160019 19.1327 71.2404 -22.4669 -8.12788 25.239 3.48426 
52.3865 96.0447 2.61869 -1.30497 -5.0437 -2.43613 0.488851 -0.678437 0.0881487 0.973139 2.64628 0.117425 0.972915 4.29122 0.101252 -4.61997 10.1257 -4.04057 4.76763 1.94279 -4.81144 57.7012 -9.53958 -5.92041 114.391 20.875 15.541 1.14862e-006 3.98714e-006 -2.9827e-006 8.09025 0.0657323 -0.652584 9.01971e-006 3.1038e-007 -3.00879 8.02915 -4.95144 0.697679 -62.582 -6.35129 4.11543 -109.151 20.5745 -6.81714 -1.26377e-005 6.45826e-007 1.17853e-005 -8.94719 0.0749573 1.19937 -1.88325e-005 -5.83075e-007 3.06128 -8.02905 -4.95148 -0.697677 173.419 3.53133 3.23249 180 7.0157e-015 179.026 179.039 13.2456 179.526 2.55378e-006 -1.84189e-007 0.127561 -17.8554 69.0859 20.4227 8.12621 25.2366 -3.47896 -175.227 0.165016 -1.03346 4.5067e-006 -1.99009e-005 -0.991997 -1.77357 -13.3586 0.362421 -1.6134e-006 -4.95199e-006 -0.160775 19.1404 71.2461 -22.4705 -8.12788 25.239 3.48426 
52.3971 96.0502 2.62551 -1.30061 -5.03832 -2.44587 0.48782 -0.68166 0.0867227 0.97208 2.63982 0.114924 0.971865 4.28476 0.0987561 -4.62441 10.1894 -4.02979 4.76386 1.88649 -4.80168 57.7103 -9.51666 -5.90577 114.376 20.8722 15.5359 1.14862e-006 3.98714e-006 -2.9827e-006 8.0984 0.065731 -0.652615 9.01971e-006 3.1038e-007 -3.00879 8.02915 -4.95144 0.697679 -62.5919 -6.36431 4.12341 -109.143 20.5663 -6.80983 -1.26377e-005 6.45826e-007 1.17853e-005 -8.95832 0.0749551 1.20017 -1.88325e-005 -5.83075e-007 3.06128 -8.02905 -4.95148 -0.697677 173.405 3.54075 3.24069 180 7.0157e-015 179.026 179.037 13.2527 179.527 2.55378e-006 -1.84189e-007 0.127626 -17.855 69.0877 20.4252 8.12621 25.2366 -3.47896 -175.238 0.16779 -1.02707 4.5067e-006 -1.99009e-005 -0.992224 -1.77449 -13.3614 0.362233 -1.6134e-006 -4.95199e-006 -0.16152 19.1487 71.2521 -22.4745 -8.12788 25.239 3.48426 
52.4012 96.0513 2.63756 -1.29645 -5.03308 -2.45556 0.486849 -0.684669 0.0853907 0.971089 2.63379 0.112591 0.970883 4.27873 0.096428 -4.6286 10.249 -4.01936 4.76004 1.83374 -4.79222 57.7186 -9.49544 -5.89221 114.362 20.8696 15.5305 1.14862e-006 3.98714e-006 -2.9827e-006 8.10635 0.0657297 -0.652628 9.01971e-006 3.1038e-007 -3.00879 8.02915 -4.95144 0.697679 -62.6011 -6.37612 4.13067 -109.136 20.5582 -6.80217 -1.26377e-005 6.45826e-007 1.17853e-005 -8.96937 0.0749528 1.20104 -1.88325e-005 -5.83075e-007 3.06128 -8.02905 -4.95148 -0.697677 173.391 3.54934 3.24881 180 7.0157e-015 179.026 179.034 13.2588 179.527 2.55378e-006 -1.84189e-007 0.127636 -17.8539 69.0889 20.4272 8.12621 25.2366 -3.47896 -175.25 0.17051 -1.02081 4.5067e-006 -1.99009e-005 -0.992487 -1.77539 -13.3647 0.362025 -1.6134e-006 -4.95199e-006 -0.16225 19.1579 71.2582 -22.4789 -8.12788 25.239 3.48426 
52.4012 96.0735 2.64077 -1.29253 -5.02802 -2.46519 0.485952 -0.687417 0.0841729 0.970183 2.62828 0.110463 0.969984 4.27322 0.0943042 -4.63247 10.3035 -4.00933 4.75617 1.78528 -4.78311 57.7261 -9.47627 -5.87997 114.349 20.8672 15.5247 1.14862e-006 3.98714e-006 -2.9827e-006 8.11407 0.0657284 -0.652617 9.01971e-006 3.1038e-007 -3.00879 8.02915 -4.95144 0.697679 -62.6094 -6.3865 4.13705 -109.13 20.5504 -6.79409 -1.26377e-005 6.45826e-007 1.17853e-005 -8.9803 0.0749505 1.202 -1.88325e-005 -5.83075e-007 3.06128 -8.02905 -4.95148 -0.697677 173.378 3.55694 3.25682 180 7.0157e-015 179.026 179.032 13.2635 179.528 2.55378e-006 -1.84189e-007 0.127579 -17.852 69.0896 20.4285 8.12621 25.2366 -3.47896 -175.261 0.173161 -1.01473 4.5067e-006 -1.99009e-005 -0.992793 -1.77626 -13.3684 0.361791 -1.6134e-006 -4.95199e-006 -0.162964 19.1681 71.2647 -22.4839 -8.12788 25.239 3.48426 
